<?xml version="1.0" standalone="no"?>
<!DOCTYPE svg PUBLIC "-//W3C//DTD SVG 1.1//EN" "http://www.w3.org/Graphics/SVG/1.1/DTD/svg11.dtd" >
<svg xmlns="http://www.w3.org/2000/svg">
<metadata>Generated by IcoMoon</metadata>
<defs>
<font id="zrpd" horiz-adv-x="1024">
<font-face units-per-em="1024" ascent="960" descent="-64" />
<missing-glyph horiz-adv-x="1024" />
<glyph unicode="&#x20;" horiz-adv-x="512" d="" />
<glyph unicode="&#xe900;" glyph-name="user" d="M313.409 669.399c0-113.024 91.624-204.649 204.649-204.649s204.649 91.624 204.649 204.649v0c0 113.024-91.624 204.649-204.649 204.649s-204.649-91.624-204.649-204.649v0zM640.452 448.752c-35.37-22.523-77.356-35.577-122.395-35.577-46.631 0-89.988 13.999-126.117 38.008-187.78-52.415-325.54-224.731-325.54-429.231h891.198c0 201.441-133.669 371.657-317.146 426.801z" />
<glyph unicode="&#xe901;" glyph-name="key" d="M704 960c-176.736 0-320-143.264-320-320 0-20.032 1.856-39.616 5.376-58.624l-389.376-389.376v-192c0-35.36 28.64-64 64-64h64v64h128v128h128v128h128l83.040 83.040c34.016-12.32 70.688-19.040 108.96-19.040 176.736 0 320 143.264 320 320s-143.264 320-320 320zM799.872 639.872c-53.024 0-96 42.976-96 96s42.976 96 96 96 96-42.976 96-96-42.976-96-96-96z" />
<glyph unicode="&#xe902;" glyph-name="email" d="M511.983 227.274l-191.978 157.668-319.984-283.82h1023.958l-319.986 283.82-192.010-157.668zM1023.978 164.177v473.034l-287.999-220.735 287.999-252.298zM0.021 637.21v-473.036l288 252.299-288 220.736zM0.021 794.879v-94.601l511.963-409.939 511.995 409.939v94.601h-1023.958z" />
<glyph unicode="&#xe903;" glyph-name="verify" d="M894.901 818.969c-9.17-0.315-18.142-0.433-26.953-0.433-231.364 0-333.335 100.215-334.209 101.148l-23.059 23.87-23.227-23.87c-0.909-1.051-100.854-101.148-334.166-101.148-8.81 0-17.748 0.118-26.996 0.433l-32.465 1.042v-454.485c0-119.006 42.036-292.576 405.416-425.383l11.358-4.143 11.348 4.143c363.384 132.807 405.422 306.377 405.422 425.383v454.485l-32.47-1.042zM474.878 247.952l-209.382 186.555 55.611 45.262 111.336-82.58c0 0 153.688 159.928 302.139 234.6l21.196-23.984c0 0-185.523-154.621-280.899-359.854v0 0z" />
<glyph unicode="&#xe904;" glyph-name="success" d="M511.452 2.248c-246.502 0-447.037 200.535-447.037 447.027 0 246.497 200.535 447.037 447.037 447.037s447.037-200.54 447.037-447.037c0-246.492-200.535-447.027-447.037-447.027zM511.452 845.036c-218.225 0-395.766-177.541-395.766-395.766s177.541-395.75 395.766-395.75 395.766 177.526 395.766 395.75-177.541 395.766-395.766 395.766zM438.477 275.159c-0.001 0-0.002 0-0.003 0-7.079 0-13.487 2.873-18.122 7.516v0l-148.46 148.47c-4.64 4.638-7.51 11.046-7.51 18.125s2.87 13.487 7.51 18.125v0c4.638 4.64 11.046 7.51 18.125 7.51s13.487-2.87 18.125-7.51l130.335-130.33 272.44 272.42c4.638 4.64 11.046 7.51 18.125 7.51s13.487-2.87 18.125-7.51v0c4.64-4.638 7.51-11.046 7.51-18.125s-2.87-13.487-7.51-18.125l-290.565-290.555c-4.637-4.643-11.045-7.516-18.124-7.521h-0.001z" />
<glyph unicode="&#xe905;" glyph-name="error" d="M510.971 3.096c-246.184 0-446.46 200.275-446.46 446.471 0 246.187 200.276 446.461 446.46 446.461 246.195 0 446.471-200.274 446.471-446.461 0-246.195-200.275-446.471-446.471-446.471v0 0zM510.971 831.958c-210.852 0-382.39-171.539-382.39-382.391 0-210.833 171.538-382.405 382.39-382.405 210.833 0 382.404 171.573 382.404 382.405 0 210.852-171.572 382.391-382.404 382.391v0 0zM555.879 448.194l137.894 136.396c12.529 12.367 12.627 32.559 0.254 45.086-12.374 12.536-32.593 12.637-45.092 0.258l-138.089-136.555-135.978 136.394c-12.47 12.466-32.625 12.533-45.091 0.063-12.47-12.435-12.499-32.622-0.063-45.091l135.788-136.206-136.907-135.437c-12.529-12.408-12.627-32.559-0.254-45.092 6.25-6.318 14.447-9.472 22.679-9.472 8.094 0 16.199 3.091 22.419 9.219l137.095 135.593 138.212-138.661c6.216-6.249 14.384-9.369 22.576-9.369 8.167 0 16.301 3.12 22.517 9.307 12.466 12.436 12.505 32.593 0.063 45.096l-138.021 138.47z" />
<glyph unicode="&#xe906;" glyph-name="radio" d="M864.64-0.64h-704c-52.934 0-96 43.066-96 96v704c0 52.934 43.066 96 96 96h704c52.934 0 96-43.066 96-96v-704c0-52.934-43.066-96-96-96zM160.64 831.36c-17.645 0-32-14.355-32-32v-704c0-17.645 14.355-32 32-32h704c17.645 0 32 14.355 32 32v704c0 17.645-14.355 32-32 32h-704z" />
<glyph unicode="&#xe907;" glyph-name="radio1" d="M713.6 608l-275.2-268.8-128 131.2c-9.6 9.6-25.6 9.6-35.2 0s-9.6-25.6 0-35.2l147.2-150.4c3.2-3.2 9.6-6.4 16-6.4s12.8 3.2 16 6.4l291.2 284.8c9.6 9.6 9.6 25.6 0 35.2-6.4 12.8-22.4 12.8-32 3.2zM899.2 211.2v473.6c0 83.2-67.2 150.4-150.4 150.4h-473.6c-83.2 0-150.4-67.2-150.4-150.4v-476.8c0-83.2 67.2-150.4 150.4-150.4h476.8c80 3.2 147.2 70.4 147.2 153.6zM851.2 211.2c0-54.4-44.8-102.4-102.4-102.4h-473.6c-54.4 0-102.4 44.8-102.4 102.4v473.6c0 54.4 44.8 102.4 102.4 102.4h476.8c54.4 0 102.4-44.8 102.4-102.4v-473.6z" />
<glyph unicode="&#xe908;" glyph-name="pic" d="M904.777 841.101h-787.456c-28.991 0-52.498-23.531-52.498-52.499v-682.462c0-29.016 23.506-52.498 52.498-52.498h787.456c28.992 0 52.499 23.481 52.499 52.498v682.463c0 28.968-23.505 52.498-52.499 52.498zM904.777 132.39c0-14.507-11.74-26.248-26.248-26.248h-734.96c-14.506 0-26.248 11.741-26.248 26.248v102.616l183.739 190.219c29.53 31.992 52.498 0 52.498 0l104.995-104.994 209.989 209.989c27.89 31.991 52.498 0 52.498 0l183.74-183.741-0.002-214.089zM904.777 413.742l-163.233 166.49c-54.958 58.263-91.051 1.665-91.051 1.665l-191.942-194.405-89.409 95.151c-41.013 53.317-85.309-5.766-85.309-5.766l-166.512-170.057v455.512c0 14.508 11.74 26.272 26.248 26.272h734.961c14.508 0 26.248-11.764 26.248-26.272l-0.001-348.59zM248.564 683.61c-28.99 0-52.498-23.531-52.498-52.498 0-29.015 23.507-52.498 52.498-52.498s52.498 23.482 52.498 52.498c-0.001 28.967-23.507 52.498-52.498 52.498z" />
<glyph unicode="&#xe909;" glyph-name="expand" d="M936.362 76.594l0.144 0.288-247.988 249.090c48.834 59.145 76.908 132.65 79.198 207.52 4.59 91.198-30.124 185.392-92.816 251.92-53.582 58.066-128.884 97.095-206.56 107.116-15.079 2.11-30.519 3.165-45.91 3.165-76.861 0-151.792-25.676-210.924-72.234-68.566-52.503-115.891-131.306-129.844-216.175-13.857-79.114 1.127-163.982 41.103-232.788 27.343-47.828 66.277-88.92 112.571-118.816 42.494-27.618 91.389-45.67 141.327-52.119 14.984-2.086 30.352-3.141 45.671-3.141 70.939 0 141.087 22.272 198.182 62.788l247.688-248.898 4.579-4.34 0.12 0.12c8.151-6.736 18.508-10.476 29.224-10.476 25.317 0 45.911 20.761 45.911 46.27-0.002 11.312-4.21 22.245-11.678 30.708zM472.079 257.287c-42.506-7.432-87.289-5.131-129.029 6.617-81.392 22.44-151.096 81.848-186.47 159.020-40.948 85.684-35.841 193.614 13.018 274.983 43.489 75.183 120.158 127.997 204.966 141.231l6.018 0.911c3.164 0.527 6.365 1.031 9.482 1.391 10.476 1.102 21.145 1.654 31.694 1.654 43.309 0 86.102-9.374 123.802-27.139 69.021-31.789 124.018-90.861 150.892-162.113 29.501-76.094 25.234-164.87-11.459-237.511-40.575-83.335-122.123-144.278-212.913-159.045zM448.44 714.976h-52.167v-140.657h-140.033v-52.407l140.033-0.12v-140.68h52.167v140.68l140.082 0.12v52.407h-139.95z" />
<glyph unicode="&#xe90a;" glyph-name="narrow" d="M948.367 66.099l0.136 0.295-255.002 256.136c50.216 60.816 79.084 136.4 81.438 213.389 4.721 93.777-30.976 190.636-95.441 259.045-55.097 59.707-132.53 99.842-212.403 110.147-15.506 2.169-31.382 3.254-47.21 3.254-79.034 0-156.085-26.403-216.89-74.277-70.503-53.988-119.167-135.021-133.514-222.29-14.249-81.352 1.159-168.62 42.266-239.372 28.116-49.182 68.152-91.436 115.755-122.177 43.696-28.4 93.974-46.963 145.325-53.594 15.407-2.145 31.21-3.23 46.962-3.23 72.934 0 145.077 22.902 203.787 64.564l254.694-255.939 4.708-4.462 0.124 0.123c8.382-6.927 19.031-10.774 30.051-10.774 26.033 0 47.209 21.349 47.209 47.579-0.001 11.636-4.327 22.877-11.995 31.58zM470.942 251.902c-43.709-7.642-89.76-5.275-132.679 6.804-83.694 23.075-155.358 84.163-191.745 163.518-42.106 88.107-36.855 199.091 13.386 282.761 44.72 77.31 123.558 131.618 210.764 145.226l6.188 0.937c3.254 0.543 6.546 1.060 9.75 1.43 10.774 1.134 21.744 1.701 32.59 1.701 44.534 0 88.538-9.639 127.304-27.906 70.974-32.689 127.526-93.432 155.162-166.698 30.334-78.247 25.946-169.534-11.784-244.23-41.723-85.691-125.576-148.357-218.934-163.543zM248.985 577.903h341.679v-53.89h-341.679v53.89z" />
<glyph unicode="&#xe90b;" glyph-name="close" d="M884.036 134.973l-314.115 314.118 314.11 314.111c15.73 15.729 15.73 41.232 0 56.96-15.73 15.729-41.231 15.729-56.961 0l-314.11-314.113-314.112 314.112c-15.728 15.727-41.234 15.727-56.958 0-15.73-15.73-15.73-41.231 0-56.961l314.11-314.109-314.113-314.118c-15.727-15.73-15.727-41.231 0-56.961 15.727-15.725 41.233-15.725 56.961 0l314.112 314.117 314.116-314.117c15.729-15.73 41.23-15.73 56.96 0 15.726 15.73 15.726 41.231 0 56.961z" />
<glyph unicode="&#xe90c;" glyph-name="output" d="M840.512-30.4h-672.448c-0.005 0-0.010 0-0.016 0-74.254 0-134.448 60.194-134.448 134.448 0 0.006 0 0.011 0 0.017v-0.001 672.432c0 74.24 62.448 150.16 136.72 150.16h375.984v-68.352h-375.968c-37.152 0-68.352-31.216-68.352-68.352l-1.152-685.888c0.009-37.127 30.104-67.223 67.231-67.232h0.001l685.872 1.12c37.12 0 68.352 31.248 68.352 68.352v376h68.368v-376c0.016-74.256-75.904-136.704-150.144-136.704zM956.48 619.024c-0.033 0-0.073 0-0.112 0-18.822 0-34.080 15.258-34.080 34.080 0 0.034 0 0.068 0 0.101v-0.005l-1.008 163.328-520.16-496.112c-6.446-6.038-15.138-9.747-24.696-9.747s-18.25 3.709-24.716 9.765l0.020-0.019c-6.307 5.895-10.239 14.264-10.239 23.552s3.931 17.657 10.22 23.535l0.018 0.017 515.68 491.856-150.192-1.088c-0.033 0-0.073 0-0.112 0-18.822 0-34.080 15.258-34.080 34.080 0 0.034 0 0.068 0 0.101v-0.005c0 0.005 0 0.010 0 0.016 0 18.866 15.294 34.16 34.16 34.16 0.011 0 0.022 0 0.034 0h238.51c19.376 0.032 34.976-14.832 34.944-33.328v-240.128c0-18.866-15.294-34.16-34.16-34.16-0.011 0-0.023 0-0.034 0h0.002z" />
<glyph unicode="&#xe90d;" glyph-name="arrow-left" d="M300.304 469.103c-0.486-0.973-1.338-1.824-1.703-2.797-8.514-17.758-5.717-39.651 9.365-53.882l343.725-325.116c18.731-17.758 48.287-16.907 66.045 1.824s16.907 48.287-1.824 66.045l-308.453 291.79 307.236 296.047c18.609 17.881 19.096 47.436 1.216 66.045-9.122 9.487-21.407 14.351-33.57 14.352-11.676 0-23.353-4.378-32.353-13.137l-340.563-328.278c-0.608-0.608-0.851-1.581-1.581-2.189-0.487-0.487-0.973-0.851-1.581-1.338-2.797-2.797-4.135-6.203-5.959-9.365v0z" />
<glyph unicode="&#xe90e;" glyph-name="cut" d="M821.907 428.688l-83.656-0.023v344.29c0 34.897-27.44 63.189-61.293 63.189h-20.678c-0.544 0.038-1.185 0.061-1.83 0.064l-310.806-0.087v60.949h-0.117l-0.008 25.874c-0.004 16.941-13.328 30.677-29.763 30.674s-29.756-13.739-29.756-30.684l0.008-25.863h-0.008v-60.969l-83.667-0.023c-16.435-0.004-29.756-13.74-29.751-30.684 0.004-16.94 13.328-30.676 29.763-30.672l83.656 0.022v-344.285c0-34.901 27.444-63.192 61.297-63.192h20.675c0.608-0.038 1.22-0.060 1.839-0.060l310.799 0.086v-60.954h0.118l0.004-25.874c0.004-16.94 13.331-30.672 29.767-30.672 16.435 0.003 29.755 13.743 29.75 30.688l-0.006 25.86h0.007v60.968l83.668 0.023c16.435 0.003 29.755 13.742 29.755 30.684-0.004 16.944-13.332 30.675-29.767 30.672zM594.752 428.624h-219.469c-16.038 0-31.639 16.212-31.639 32.746v313.393l303.329 0.023c16.038 0 31.639-16.208 31.639-32.746v-313.394l-83.86-0.022z" />
<glyph unicode="&#xe90f;" glyph-name="full-screen" d="M352 960h-320c-17.673 0-32-14.327-32-32v0-320c0-17.673 14.327-32 32-32s32 14.327 32 32v0 288h288c17.673 0 32 14.327 32 32s-14.327 32-32 32v0zM992 960h-320c-17.673 0-32-14.327-32-32s14.327-32 32-32v0h288v-288c0-17.673 14.327-32 32-32s32 14.327 32 32v0 320c0 17.673-14.327 32-32 32v0zM352 0h-288v288c0 17.673-14.327 32-32 32s-32-14.327-32-32v0-320c0-17.673 14.327-32 32-32v0h320c17.673 0 32 14.327 32 32s-14.327 32-32 32v0zM992 320c-17.673 0-32-14.327-32-32v0-288h-288c-17.673 0-32-14.327-32-32s14.327-32 32-32v0h320c17.673 0 32 14.327 32 32v0 320c0 17.673-14.327 32-32 32v0z" />
<glyph unicode="&#xe910;" glyph-name="repeat" d="M888.617 317.389c1.137-5.012 0.051-11.167-1.603-16.195-33.372-152.504-160.067-275.292-324.608-295.552-207.493-26.588-398.459 121.569-424.504 330.742s121.011 399.57 331.29 426.173c5.018 1.142 11.715 1.725 17.29 1.751-2.324 21.197-5.207 40.719-6.953 58.010-2.888 22.308-5.755 39.040-5.78 44.621-1.7 6.129-1.178 13.389 3.272 18.432 6.651 8.96 18.371 10.685 27.325 4.029l0.563-1.116 15.688-14.438 110.884-86.569 29.123-21.637c4.475-3.328 6.723-7.788 7.864-12.805 1.137-5.012-0.517-10.045-3.84-14.525l-21.637-29.117-86.564-110.884-12.764-16.241-1.116-0.563c-7.219-7.849-18.929-9.569-27.884-2.913-5.048 4.444-8.428 11.126-7.342 17.27-1.137 5.018-2.883 22.308-5.775 44.621-2.304 15.616-4.613 34.028-6.932 52.429-5.586-0.026-11.715-1.725-17.29-1.751-169.559-21.402-291.092-176.532-269.696-346.102 21.402-169.564 176.532-291.092 346.097-269.696 135.537 16.783 240.558 118.825 265.667 246.18 3.845 14.531 15.519 24.627 30.019 26.363 19.528 2.883 38.006-11.546 39.209-30.515z" />
<glyph unicode="&#xe911;" glyph-name="phone" d="M725.686 896.039h-428.344c0 0-61.51 0.98-61.51-63.62l-0.318-767.611c0 0-5.77-63.325 58.636-63.325h434.391c0 0 59.613-0.935 59.613 60.746v770.19c0.024 0 1.875 63.62-62.469 63.62v0 0zM449.822 865.154h122.98v-30.794h-122.98v30.794zM403.691 865.154c8.521 0 15.398-6.859 15.398-15.374 0-8.522-6.859-15.444-15.398-15.444-8.479 0-15.356 6.9-15.356 15.444 0.017 8.516 6.877 15.374 15.356 15.374v0 0zM511.355 63.21c-17.018 0-30.751 13.799-30.751 30.841 0 17.019 13.757 30.859 30.751 30.859 16.978 0 30.759-13.84 30.759-30.859 0-17.042-13.781-30.841-30.759-30.841v0 0zM727.883 186.613h-433.091v616.905h433.091v-616.905z" />
<glyph unicode="&#xe912;" glyph-name="undo" horiz-adv-x="1025" d="M896.512 730.112c-82.176 82.176-191.488 127.488-307.712 127.488s-225.536-45.261-307.712-127.488-127.488-191.488-127.488-307.712v-66.202l-109.875 109.875c-9.984 9.984-26.214 9.984-36.198 0s-9.984-26.214 0-36.198l153.6-153.6c5.018-5.018 11.571-7.475 18.125-7.475s13.107 2.509 18.125 7.475l153.6 153.6c9.984 9.984 9.984 26.214 0 36.198s-26.214 9.984-36.198 0l-109.875-109.875v66.202c0 211.763 172.237 384 384 384s384-172.237 384-384-172.237-384-384-384c-14.131 0-25.6-11.469-25.6-25.6s11.469-25.6 25.6-25.6c116.224 0 225.536 45.261 307.712 127.488s127.488 191.488 127.488 307.712c0 116.224-45.261 225.536-127.488 307.712z" />
<glyph unicode="&#xe913;" glyph-name="arrows" d="M960.202 448.041l-179.1 208.95v-179.1h-238.801v238.8h-59.7v-238.8h-238.8v179.1l-179.1-208.95 179.1-208.951v179.101h238.8v-238.801h-179.1l208.95-179.1 208.951 179.1h-179.101v238.801h238.801v-179.101l179.1 208.951zM512.451 895.791l-208.95-179.1h417.901l-208.951 179.1z" />
<glyph unicode="&#xe914;" glyph-name="search-plus" horiz-adv-x="1042" d="M56.155 548.128c0 203.205 165.291 368.517 368.517 368.517 203.183 0 368.517-165.312 368.517-368.517s-165.334-368.517-368.517-368.517c-203.226 0-368.517 165.312-368.517 368.517 0 0 0-203.205 0 0v0 0zM388.258 584.53h-153.648c-18.808 0-34.081-15.282-34.081-34.133 0-18.982 15.259-34.133 34.081-34.133h153.648v-153.648c0-18.808 15.282-34.081 34.133-34.081 18.982 0 34.133 15.259 34.133 34.081v153.648h153.648c18.808 0 34.081 15.282 34.081 34.133 0 18.982-15.259 34.133-34.081 34.133h-153.648v153.648c0 18.808-15.282 34.081-34.133 34.081-18.982 0-34.133-15.259-34.133-34.081v-153.648zM1036.778-10.37l-295.312 295.355c59.353 71.384 95.077 163.058 95.077 263.143 0 227.483-184.388 411.872-411.872 411.872-227.44 0-411.872-184.388-411.872-411.872 0-227.462 184.432-411.872 411.872-411.872 100.085 0 191.759 35.724 263.143 95.077l295.312-295.334 53.652 53.63z" />
<glyph unicode="&#xe915;" glyph-name="search-minus" d="M751.987 229.706c70.711 74.88 114.109 175.798 114.109 286.673 0 230.413-187.454 417.866-417.866 417.866s-417.866-187.454-417.866-417.867c0-230.412 187.454-417.866 417.866-417.866 101.129 0 193.976 36.105 266.337 96.109l258.149-238.805 34.744 37.558-255.474 236.332zM448.23 149.679c-202.199 0-366.701 164.502-366.701 366.701s164.502 366.701 366.701 366.701 366.701-164.502 366.701-366.701c0-202.2-164.502-366.701-366.701-366.701zM246.906 526.227h385.498v-51.165h-385.498z" />
<glyph unicode="&#xe916;" glyph-name="refresh" d="M893.901 628.386c0.202 2.532-0.137 4.995-1.177 7.227-1.314 2.824-3.584 4.88-6.401 6.332-1.562 1.373-3.269 2.55-5.164 3.27-5.161 1.982-10.309 0.782-14.344-2.588-2.196-0.68-4.399-1.493-6.59-2.641l-31.039-16.188c-61.199 116.657-179.488 194.511-315.896 194.511-145.002 0-269.476-88.036-326.722-217.1-0.163-0.347-0.366-0.65-0.512-1.006-0.703-1.597-1.676-3.021-2.359-4.63l1.378-0.137c-0.369-1.758-1.083-3.393-1.083-5.258 0-14.753 12.184-26.712 27.213-26.712 15.003 0 27.157 11.929 27.192 26.649l0.092-0.010c52.64 105.262 151.595 174.452 273.344 174.452 118.694 0 219.481-60.135 273.341-161.037l-38.426-22.716c-2.751-1.439-5.171-3.184-7.362-5.054-5.643-0.96-10.289-4.733-12.105-10.795-3.055-10.171 2.92-22.78 13.342-28.149l111.187-50.047c1.464-1.223 3.026-2.275 4.766-2.942 4.379-1.678 8.745-1.057 12.434 1.202 3.941 1.719 7.069 4.995 8.486 9.695 0.558 1.873 0.718 3.831 0.696 5.805l15.936 116.343c0.746 3.895 0.568 7.82-0.227 11.523zM838.886 333.044l-1.317 0.132c0.392 1.806 1.113 3.495 1.113 5.417 0 14.756-12.179 26.718-27.208 26.718-15.022 0-27.208-11.961-27.208-26.718 0-0.033 0.020-0.063 0.020-0.097l-0.196 0.020c-52.639-105.261-151.59-174.451-273.343-174.451-118.689 0-219.483 60.129-273.344 161.032l38.434 22.716c2.746 1.439 5.164 3.184 7.354 5.058 5.652 0.963 10.289 4.728 12.107 10.8 3.052 10.158-2.922 22.775-13.337 28.144l-111.195 50.052c-1.457 1.223-3.026 2.275-4.766 2.942-4.374 1.673-8.739 1.055-12.429-1.208-3.943-1.724-7.071-5.003-8.485-9.695-0.556-1.873-0.72-3.831-0.701-5.8l-15.925-116.353c-0.751-3.884-0.578-7.82 0.224-11.518-0.202-2.532 0.132-4.995 1.172-7.229 1.312-2.82 3.594-4.88 6.399-6.325 1.569-1.373 3.269-2.555 5.164-3.286 5.171-1.974 10.311-0.772 14.349 2.605 2.191 0.667 4.401 1.49 6.59 2.636l31.034 16.185c61.199-116.667 179.499-194.506 315.904-194.506 145.021 0 269.517 88.060 326.75 217.149 0.186 0.397 0.418 0.746 0.586 1.154 0.667 1.529 1.599 2.886 2.251 4.425z" />
<glyph unicode="&#xe917;" glyph-name="save" d="M751.72 895.696h-644.014c-23.927 0-43.403-19.476-43.403-43.403v-808.561c0-23.954 19.476-43.429 43.403-43.429h808.588c23.927 0 43.403 19.476 43.403 43.429v643.987l-207.977 207.977zM234.018 672.617v168.814h393.509v-168.814h-393.509zM118.569 841.431h61.182v-189.375c0-18.892 15.713-33.705 35.797-33.705h430.447c20.084 0 35.797 14.812 35.797 33.705v189.375h47.457l176.18-176.18v-610.68h-786.86v786.86zM634.841 475.133h-408.163c-14.971 0-27.133-12.162-27.133-27.133s12.162-27.133 27.133-27.133h408.163c14.971 0 27.133 12.162 27.133 27.133s-12.162 27.133-27.133 27.133zM634.841 289.653h-408.163c-14.971 0-27.133-12.162-27.133-27.133s12.162-27.133 27.133-27.133h408.163c14.971 0 27.133 12.162 27.133 27.133s-12.162 27.133-27.133 27.133z" />
<glyph unicode="&#xe918;" glyph-name="upload" d="M210.719 284.242c-11.311 0-20.48-9.169-20.48-20.48v0-125.604c0-11.311 9.169-20.48 20.48-20.48h573.44c11.311 0 20.48 9.169 20.48 20.48v0 125.604c0 11.311-9.169 20.48-20.48 20.48s-20.48-9.169-20.48-20.48v0-105.124h-532.48v105.124c0 11.311-9.169 20.48-20.48 20.48v0zM498.34 243.282c11.311 0 20.48 9.169 20.48 20.48v0 440.525l129.905-125.481c3.67-3.574 8.69-5.779 14.225-5.779 5.778 0 10.995 2.403 14.707 6.263l0.006 0.007c3.56 3.68 5.755 8.7 5.755 14.234 0 5.778-2.392 10.996-6.241 14.72l-0.006 0.005-164.618 159.027c-0.737 0.717-1.659 1.024-2.458 1.597-1.311 0.942-2.519 1.987-4.014 2.601-2.161 0.895-4.668 1.433-7.295 1.474h-0.017c-0.143 0-0.287 0.082-0.43 0.082s-0.287-0.082-0.43-0.082c-2.644-0.044-5.151-0.581-7.448-1.524l0.137 0.050c-1.495-0.614-2.703-1.659-4.014-2.58-0.799-0.594-1.72-0.901-2.458-1.618l-0.246-0.225-0.041-0.041-164.311-158.74c-3.626-3.692-5.864-8.758-5.864-14.346 0-11.311 9.169-20.48 20.48-20.48 5.339 0 10.201 2.043 13.846 5.39l-0.015-0.014 129.905 125.481v-440.525c0-0.018 0-0.040 0-0.061 0-11.288 9.151-20.439 20.439-20.439 0.007 0 0.014 0 0.022 0h-0.001z" />
</font>
</defs>
</svg>
